<svg width="20" height="20" viewBox="0 0 20 20" fill="none" xmlns="http://www.w3.org/2000/svg">
<rect width="20" height="20" fill="white"/>
<g clip-path="url(#clip0_1_4)">
<path d="M6.33468 20C8.17468 20 9.66801 18.5067 9.66801 16.6667V13.3333H6.33468C4.49468 13.3333 3.00134 14.8267 3.00134 16.6667C3.00134 18.5067 4.49468 20 6.33468 20Z" fill="#0ACF83"/>
<path d="M3.00134 9.99999C3.00134 8.15999 4.49468 6.66666 6.33468 6.66666H9.66801V13.3333H6.33468C4.49468 13.3333 3.00134 11.84 3.00134 9.99999Z" fill="#A259FF"/>
<path d="M3.00134 3.33333C3.00134 1.49333 4.49468 0 6.33468 0H9.66801V6.66667H6.33468C4.49468 6.66667 3.00134 5.17333 3.00134 3.33333Z" fill="#F24E1E"/>
<path d="M9.668 0H13.0013C14.8413 0 16.3347 1.49333 16.3347 3.33333C16.3347 5.17333 14.8413 6.66667 13.0013 6.66667H9.668V0Z" fill="#FF7262"/>
<path d="M16.3347 9.99999C16.3347 11.84 14.8413 13.3333 13.0013 13.3333C11.1613 13.3333 9.668 11.84 9.668 9.99999C9.668 8.15999 11.1613 6.66666 13.0013 6.66666C14.8413 6.66666 16.3347 8.15999 16.3347 9.99999Z" fill="#1ABCFE"/>
</g>
<defs>
<clipPath id="clip0_1_4">
<rect width="13.336" height="20" fill="white" transform="translate(3)"/>
</clipPath>
</defs>
</svg>
