<svg width="20" height="20" viewBox="0 0 20 20" fill="none" xmlns="http://www.w3.org/2000/svg">
<rect width="20" height="20" fill="white"/>
<path d="M2.78738 18.0007L1.1825 0H18.8175L17.2109 17.9979L9.98921 20L2.78738 18.0007Z" fill="#264DE4"/>
<path d="M15.8355 16.8519L17.2084 1.4718H10V18.4697L15.8355 16.8519Z" fill="#2965F1"/>
<path d="M4.86173 8.14804L5.05958 10.3557H10V8.14804H4.86173ZM4.66481 5.8873H10V3.67957H4.46411L4.66481 5.8873ZM10 13.8817L9.99032 13.8843L7.53157 13.2204L7.37442 11.4596H5.15817L5.46751 14.926L9.98985 16.1815L10 16.1787V13.8817Z" fill="#EBEBEB"/>
<path d="M9.99237 8.14804V10.3557H12.7109L12.4547 13.219L9.99237 13.8836V16.1804L14.5183 14.926L14.5515 14.553L15.0703 8.74085L15.1242 8.14804L15.5227 3.67957H9.99237V5.8873H13.1033L12.9023 8.14804H9.99237Z" fill="white"/>
</svg>
