<svg width="20" height="20" viewBox="0 0 20 20" fill="none" xmlns="http://www.w3.org/2000/svg">
<rect width="20" height="20" fill="white"/>
<g clip-path="url(#clip0_1_15)">
<path d="M3.08293 13.0315L2.03672 13.4141L1.98105 16.5287L5.60245 15.2047C4.35931 14.788 3.45271 14.0536 3.08293 13.0315" fill="#FDBD39"/>
<path d="M3.63055 9.73718L0 11.0646L2.03673 13.4149L3.08293 13.0323C2.71398 12.0135 2.94167 10.8633 3.63055 9.73718Z" fill="#F69833"/>
<path d="M9.73907 5.24193C5.11634 6.93192 2.13561 10.42 3.08293 13.0315L19.823 6.91113C18.8757 4.29963 14.3618 3.55194 9.73907 5.24193" fill="#FECF33"/>
<path d="M13.166 14.7015C17.7888 13.0116 20.7745 9.53926 19.8222 6.91196L3.08209 13.0315C4.03439 15.6596 8.54329 16.3915 13.166 14.7015Z" fill="#EE6723"/>
<path d="M19.8222 6.9111L3.08295 13.0315C3.41035 13.9364 4.66098 14.3821 6.41434 14.3821C8.1245 14.3821 10.3133 13.9588 12.5952 13.1246C17.2179 11.4346 20.4695 8.69757 19.8222 6.9111" fill="#F69833"/>
<path d="M16.4908 5.56128C14.7815 5.56128 12.5918 5.98461 10.31 6.81879C5.68723 8.50878 2.43561 11.245 3.08294 13.0315L19.823 6.91111C19.4948 6.00623 18.245 5.56128 16.4908 5.56128" fill="#FDBD39"/>
<path d="M15.5659 16.6942C15.0731 16.6942 14.3468 16.2493 13.4062 15.371C12.2935 14.3323 11.0196 12.8103 9.81718 11.0862C8.61558 9.36209 7.62838 7.63883 7.03672 6.23245C6.39272 4.70048 6.30048 3.75901 6.76333 3.43299C6.87053 3.3598 6.99767 3.32238 7.1273 3.3257C7.50373 3.3257 8.23832 3.60598 9.59531 4.94334L9.62522 4.97245L9.62107 5.01403C9.61193 5.11051 9.60362 5.20698 9.59614 5.30263L9.58118 5.49142L9.44822 5.35752C7.9857 3.88294 7.34252 3.72408 7.13312 3.72408C7.07329 3.72408 7.02592 3.73573 6.99185 3.75985C6.79075 3.90123 6.77746 4.5932 7.40235 6.07776C7.98321 7.45836 8.95629 9.15583 10.1421 10.8575C11.3287 12.5599 12.5835 14.0586 13.6771 15.0791C14.8554 16.1794 15.3864 16.2984 15.5601 16.2984C15.6199 16.2984 15.6681 16.2859 15.7047 16.2601C15.9166 16.1112 15.9166 15.3702 15.2202 13.7717L15.1878 13.6985L15.2576 13.6603C15.3274 13.622 15.3955 13.5846 15.4587 13.548L15.5426 13.5006L15.5817 13.5887C16.0753 14.7215 16.5373 16.1611 15.9315 16.587C15.8243 16.6601 15.6964 16.6976 15.5659 16.6942ZM15.5659 16.5196V16.6069V16.5196Z" fill="#EE6723"/>
<path d="M13.2782 14.6533L13.2716 14.7398C13.1544 16.1869 12.8469 17.9268 12.0442 17.9975C12.0276 17.9992 12.011 17.9992 11.9952 17.9992C11.4501 17.9992 10.934 17.2174 10.4629 15.6763C10.0158 14.2175 9.66927 12.2597 9.48729 10.163C9.30447 8.06633 9.30696 6.07777 9.49477 4.56327C9.69919 2.9132 10.0881 2.05157 10.6515 2.00167C10.6681 2.00001 10.6856 1.99918 10.7022 1.99918C11.0977 1.99918 11.6935 2.44746 12.3035 4.53499L11.9054 4.61151C11.7018 3.91455 11.48 3.34734 11.2598 2.95645C11.0562 2.59633 10.8576 2.39755 10.7022 2.39755C10.6972 2.39755 10.6922 2.39755 10.6864 2.39839C10.4421 2.42001 10.0864 3.01217 9.88865 4.61234C9.70417 6.09939 9.70168 8.05885 9.882 10.1281C10.0623 12.1982 10.403 14.1268 10.8418 15.559C11.0379 16.2002 11.2531 16.7292 11.465 17.0876C11.6595 17.4187 11.8481 17.6008 11.9952 17.6008C12.0002 17.6008 12.0052 17.6008 12.0101 17.6C12.2436 17.58 12.6841 16.9629 12.8694 14.793L13.2782 14.6533Z" fill="#EE6723"/>
</g>
<defs>
<clipPath id="clip0_1_15">
<rect width="20" height="16" fill="white" transform="translate(0 2)"/>
</clipPath>
</defs>
</svg>
