<svg width="20" height="20" viewBox="0 0 20 20" fill="none" xmlns="http://www.w3.org/2000/svg">
<rect width="20" height="20" fill="white"/>
<g clip-path="url(#clip0_1_21)">
<path d="M2.60496 18.0008L1 0H18.635L17.0285 17.9979L9.8067 20L2.60496 18.0008Z" fill="#D4B830"/>
<path d="M9.8176 18.4697L15.6531 16.8519L17.026 1.47186H9.8176V18.4697V18.4697Z" fill="#FDD83C"/>
<path d="M15.8503 7.99347H12.7389V5.73273H16.047L16.2428 3.52493H10.4307V10.2011H13.4406L13.1748 13.0643L10.4307 13.5639V15.8653L15.2384 14.7714L15.8503 7.99347Z" fill="#4D4D4D"/>
<path d="M9.22461 3.52493H4.29483L4.49954 5.73362L7.00852 5.73364V13.2457L5.77884 13.0658L5.62161 11.3051C5.62161 11.3051 4.14422 11.3051 3.40552 11.3051L3.71476 14.7714C9.22461 15.8653 3.73565 14.7706 9.22461 15.8653V3.52493Z" fill="black"/>
</g>
<defs>
<clipPath id="clip0_1_21">
<rect width="17.635" height="20" fill="white" transform="translate(1)"/>
</clipPath>
</defs>
</svg>
