<svg width="20" height="20" viewBox="0 0 20 20" fill="none" xmlns="http://www.w3.org/2000/svg">
<rect width="20" height="20" fill="white"/>
<path d="M18.187 0H1.81303C0.811742 0 0 0.811742 0 1.81303V18.187C0 19.1883 0.811742 20 1.81303 20H18.187C19.1883 20 20 19.1883 20 18.187V1.81303C20 0.811742 19.1883 0 18.187 0Z" fill="#DC395F"/>
<path d="M6.68401 6.29259C7.34886 6.29259 7.90575 5.77145 7.90575 5.08849C7.90575 4.40599 7.34886 3.88501 6.68401 3.88501C6.01916 3.88501 5.46234 4.40599 5.46234 5.08849C5.46234 5.77145 6.01916 6.29259 6.68401 6.29259Z" fill="white"/>
<path d="M4.15067 12.7395C4.07893 13.0449 4.04287 13.3748 4.04287 13.6439C4.04287 14.7041 4.6178 15.408 5.83961 15.408C6.85295 15.408 7.67439 14.8061 8.26583 13.8346L7.90469 15.284H9.91681L11.0668 10.6716C11.3542 9.50372 11.9112 8.89758 12.7557 8.89758C13.4205 8.89758 13.8338 9.31099 13.8338 9.99349C13.8338 10.1913 13.8157 10.4067 13.7439 10.6403L13.1509 12.7604C13.0611 13.0658 13.0253 13.3715 13.0253 13.6587C13.0253 14.6652 13.618 15.4014 14.8578 15.4014C15.9179 15.4014 16.7623 14.719 17.2295 13.0839L16.439 12.7787C16.0436 13.8742 15.7023 14.0722 15.4328 14.0722C15.1633 14.0722 15.0195 13.8927 15.0195 13.5335C15.0195 13.3718 15.0555 13.1924 15.1093 12.9763L15.6844 10.9108C15.828 10.4258 15.882 9.99569 15.882 9.60054C15.882 8.05539 14.9476 7.24902 13.8157 7.24902C12.7557 7.24902 11.6776 8.20516 11.1388 9.21145L11.5339 7.40524H8.46166L8.03037 8.99614H9.4678L8.58272 12.5399C7.88757 14.0851 6.61075 14.1102 6.45052 14.0743C6.18742 14.0149 6.01916 13.915 6.01916 13.5731C6.01916 13.3758 6.05507 13.0925 6.14492 12.7508L7.49257 7.40524H4.07893L3.64764 8.99614H5.06696L4.15067 12.7395Z" fill="white"/>
</svg>
