<svg width="20" height="20" viewBox="0 0 20 20" fill="none" xmlns="http://www.w3.org/2000/svg">
<rect width="20" height="20" fill="white"/>
<g clip-path="url(#clip0_1_2)">
<path d="M3.54167 0H16.4583C18.4167 0 20 1.58333 20 3.54167V15.9583C20 17.9167 18.4167 19.5 16.4583 19.5H3.54167C1.58333 19.5 0 17.9167 0 15.9583V3.54167C0 1.58333 1.58333 0 3.54167 0Z" fill="#470137"/>
<path d="M10.5167 5.125L8.01666 9.25L10.6833 13.625C10.7 13.6583 10.7083 13.6917 10.7 13.725C10.6917 13.7583 10.6583 13.7333 10.6083 13.7417H8.69999C8.56666 13.7417 8.47499 13.7333 8.41666 13.65C8.24166 13.3 8.05833 12.9583 7.88333 12.6083C7.70833 12.2667 7.51666 11.9167 7.31666 11.5583C7.11666 11.2 6.91666 10.8417 6.71666 10.475H6.69999C6.52499 10.8333 6.33333 11.1917 6.14166 11.55C5.94999 11.9083 5.75833 12.2667 5.57499 12.6167C5.38333 12.9667 5.19166 13.325 4.99999 13.6667C4.96666 13.75 4.89999 13.7583 4.80833 13.7583H2.97499C2.94166 13.7583 2.91666 13.775 2.91666 13.7333C2.90833 13.7 2.91666 13.6667 2.93333 13.6417L5.52499 9.39167L2.99999 5.11667C2.97499 5.08333 2.96666 5.05 2.98333 5.03333C2.99999 5.00833 3.03333 5 3.06666 5H4.95833C4.99999 5 5.04166 5.00833 5.07499 5.01667C5.10833 5.03333 5.13333 5.05833 5.15833 5.09167C5.31666 5.45 5.49999 5.80833 5.69166 6.16667C5.89166 6.525 6.08333 6.875 6.29166 7.225C6.49166 7.575 6.67499 7.925 6.84999 8.28333H6.86666C7.04166 7.91667 7.22499 7.55833 7.40833 7.20833C7.59166 6.85833 7.78333 6.50833 7.97499 6.15833C8.16666 5.80833 8.34999 5.45 8.53333 5.10833C8.54166 5.075 8.55833 5.04167 8.58333 5.025C8.61666 5.00833 8.64999 5 8.69166 5.00833H10.45C10.4917 5 10.5333 5.025 10.5417 5.06667C10.55 5.075 10.5333 5.10833 10.5167 5.125Z" fill="#FF61F6"/>
<path d="M14.3666 13.9167C13.75 13.925 13.1333 13.8 12.575 13.5417C12.05 13.3 11.6166 12.9 11.3166 12.4083C11.0083 11.9 10.8583 11.2667 10.8583 10.5083C10.85 9.89167 11.0083 9.28334 11.3166 8.75001C11.6333 8.20834 12.0916 7.75834 12.6416 7.45834C13.225 7.13334 13.925 6.97501 14.75 6.97501C14.7916 6.97501 14.85 6.97501 14.925 6.98334C15 6.99167 15.0833 6.99167 15.1833 7.00001V4.36667C15.1833 4.30834 15.2083 4.27501 15.2666 4.27501H16.9583C17 4.26667 17.0333 4.30001 17.0416 4.33334C17.0416 4.34167 17.0416 4.35001 17.0416 4.35001V12.2833C17.0416 12.4333 17.05 12.6 17.0583 12.7833C17.075 12.9583 17.0833 13.125 17.0916 13.2667C17.0916 13.325 17.0666 13.375 17.0083 13.4C16.575 13.5833 16.1166 13.7167 15.65 13.8C15.225 13.875 14.8 13.9167 14.3666 13.9167ZM15.1833 12.25V8.58334C15.1083 8.56667 15.0333 8.55001 14.9583 8.54167C14.8666 8.53334 14.775 8.52501 14.6833 8.52501C14.3583 8.52501 14.0333 8.59167 13.7416 8.74167C13.4583 8.88334 13.2166 9.09167 13.0333 9.35834C12.85 9.62501 12.7583 9.98334 12.7583 10.4167C12.75 10.7083 12.8 11 12.9 11.275C12.9833 11.5 13.1083 11.7 13.275 11.8667C13.4333 12.0167 13.625 12.1333 13.8416 12.2C14.0666 12.275 14.3 12.3083 14.5333 12.3083C14.6583 12.3083 14.775 12.3 14.8833 12.2917C14.9916 12.3 15.0833 12.2833 15.1833 12.25Z" fill="#FF61F6"/>
</g>
<defs>
<clipPath id="clip0_1_2">
<rect width="20" height="19.5" fill="white"/>
</clipPath>
</defs>
</svg>
