<svg width="20" height="20" viewBox="0 0 20 20" fill="none" xmlns="http://www.w3.org/2000/svg">
<rect width="20" height="20" fill="white"/>
<g clip-path="url(#clip0_1_17)">
<path d="M3.54167 0H16.4583C18.4167 0 20 1.58333 20 3.54167V15.9583C20 17.9167 18.4167 19.5 16.4583 19.5H3.54167C1.58333 19.5 0 17.9167 0 15.9583V3.54167C0 1.58333 1.58333 0 3.54167 0Z" fill="#001E36"/>
<path d="M4.5 13.675V5.10001C4.5 5.04168 4.525 5.00834 4.58333 5.00834C4.725 5.00834 4.85833 5.00834 5.05 5.00001C5.25 4.99168 5.45833 4.99168 5.68333 4.98334C5.90833 4.97501 6.15 4.97501 6.40833 4.96668C6.66667 4.95834 6.91667 4.95834 7.16667 4.95834C7.85 4.95834 8.41667 5.04168 8.88333 5.21668C9.3 5.35834 9.68333 5.59168 10 5.90001C10.2667 6.16668 10.475 6.49168 10.6083 6.85001C10.7333 7.20001 10.8 7.55834 10.8 7.93334C10.8 8.65001 10.6333 9.24168 10.3 9.70834C9.96667 10.175 9.5 10.525 8.95833 10.725C8.39167 10.9333 7.76667 11.0083 7.08333 11.0083C6.88333 11.0083 6.75 11.0083 6.66667 11C6.58333 10.9917 6.46667 10.9917 6.30833 10.9917V13.6667C6.31667 13.725 6.275 13.775 6.21667 13.7833C6.20833 13.7833 6.2 13.7833 6.18333 13.7833H4.6C4.53333 13.7833 4.5 13.75 4.5 13.675ZM6.31667 6.61668V9.41668C6.43333 9.42501 6.54167 9.43334 6.64167 9.43334H7.08333C7.40833 9.43334 7.73333 9.38334 8.04167 9.28334C8.30833 9.20834 8.54167 9.05001 8.725 8.84168C8.9 8.63334 8.98333 8.35001 8.98333 7.98334C8.99167 7.72501 8.925 7.46668 8.79167 7.24168C8.65 7.02501 8.45 6.85834 8.20833 6.76668C7.9 6.64168 7.56667 6.59168 7.225 6.60001C7.00833 6.60001 6.81667 6.60001 6.65833 6.60834C6.49167 6.60001 6.375 6.60834 6.31667 6.61668Z" fill="#31A8FF"/>
<path d="M16 8.90836C15.75 8.77502 15.4833 8.68336 15.2 8.62502C14.8917 8.55836 14.5833 8.51669 14.2667 8.51669C14.1 8.50836 13.925 8.53336 13.7667 8.57502C13.6583 8.60002 13.5667 8.65836 13.5083 8.74169C13.4667 8.80836 13.4417 8.89169 13.4417 8.96669C13.4417 9.04169 13.475 9.11669 13.525 9.18336C13.6 9.27502 13.7 9.35002 13.8083 9.40836C14 9.50836 14.2 9.60002 14.4 9.68336C14.85 9.83336 15.2833 10.0417 15.6833 10.2917C15.9583 10.4667 16.1833 10.7 16.3417 10.9834C16.475 11.25 16.5417 11.5417 16.5333 11.8417C16.5417 12.2334 16.425 12.625 16.2083 12.95C15.975 13.2834 15.65 13.5417 15.275 13.6917C14.8667 13.8667 14.3667 13.9584 13.7667 13.9584C13.3833 13.9584 13.0083 13.925 12.6333 13.85C12.3417 13.8 12.05 13.7084 11.7833 13.5834C11.725 13.55 11.6833 13.4917 11.6917 13.425V11.975C11.6917 11.95 11.7 11.9167 11.725 11.9C11.75 11.8834 11.775 11.8917 11.8 11.9084C12.125 12.1 12.4667 12.2334 12.8333 12.3167C13.15 12.4 13.4833 12.4417 13.8167 12.4417C14.1333 12.4417 14.3583 12.4 14.5083 12.325C14.6417 12.2667 14.7333 12.125 14.7333 11.975C14.7333 11.8584 14.6667 11.75 14.5333 11.6417C14.4 11.5334 14.125 11.4084 13.7167 11.25C13.2917 11.1 12.9 10.9 12.5333 10.65C12.275 10.4667 12.0583 10.225 11.9 9.94169C11.7667 9.67502 11.7 9.38336 11.7083 9.09169C11.7083 8.73336 11.8083 8.39169 11.9917 8.08336C12.2 7.75002 12.5083 7.48336 12.8667 7.31669C13.2583 7.11669 13.75 7.02502 14.3417 7.02502C14.6833 7.02502 15.0333 7.05002 15.375 7.10002C15.625 7.13336 15.8667 7.20002 16.0917 7.29169C16.125 7.30002 16.1583 7.33336 16.175 7.36669C16.1833 7.40002 16.1917 7.43336 16.1917 7.46669V8.82502C16.1917 8.85836 16.175 8.89169 16.15 8.90836C16.075 8.92502 16.0333 8.92502 16 8.90836Z" fill="#31A8FF"/>
</g>
<defs>
<clipPath id="clip0_1_17">
<rect width="20" height="19.5" fill="white"/>
</clipPath>
</defs>
</svg>
