<svg width="20" height="20" viewBox="0 0 20 20" fill="none" xmlns="http://www.w3.org/2000/svg">
<rect width="20" height="20" fill="white"/>
<g clip-path="url(#clip0_1_16)">
<path d="M3.54167 0H16.4583C18.4167 0 20 1.58333 20 3.54167V15.9583C20 17.9167 18.4167 19.5 16.4583 19.5H3.54167C1.58333 19.5 0 17.9167 0 15.9583V3.54167C0 1.58333 1.58333 0 3.54167 0Z" fill="#330000"/>
<path d="M9.66667 11.6667H6.56667L5.93334 13.625C5.91667 13.7 5.85001 13.75 5.77501 13.7417H4.20834C4.11667 13.7417 4.09167 13.6917 4.11667 13.5917L6.80001 5.86668C6.82501 5.78335 6.85001 5.69168 6.88334 5.59168C6.91667 5.41668 6.93334 5.23335 6.93334 5.05001C6.92501 5.00835 6.95834 4.96668 7.00001 4.95835H9.15834C9.22501 4.95835 9.25834 4.98335 9.26667 5.02501L12.3083 13.6083C12.3333 13.7 12.3083 13.7417 12.225 13.7417H10.4833C10.425 13.75 10.3667 13.7083 10.35 13.65L9.66667 11.6667ZM7.05001 9.97501H9.16667C9.11667 9.80001 9.05001 9.59168 8.97501 9.37501C8.90001 9.15001 8.82501 8.90835 8.75001 8.65835C8.66667 8.40001 8.59167 8.15001 8.50834 7.89168C8.42501 7.63335 8.35001 7.39168 8.28334 7.15001C8.21667 6.91668 8.15834 6.70001 8.10001 6.50001H8.08334C8.00834 6.85835 7.91667 7.21668 7.80001 7.57501C7.67501 7.97501 7.55001 8.39168 7.41667 8.80835C7.30001 9.23335 7.17501 9.62501 7.05001 9.97501ZM14.1667 6.41668C13.8917 6.42501 13.625 6.31668 13.425 6.12501C13.2333 5.91668 13.1333 5.64168 13.1417 5.35835C13.1333 5.07501 13.2417 4.80835 13.4417 4.61668C13.6417 4.42501 13.9083 4.32501 14.1833 4.32501C14.5083 4.32501 14.7583 4.42501 14.9417 4.61668C15.125 4.81668 15.225 5.08335 15.2167 5.35835C15.225 5.64168 15.125 5.91668 14.925 6.12501C14.7333 6.32501 14.45 6.43335 14.1667 6.41668ZM13.2333 13.65V7.23335C13.2333 7.15001 13.2667 7.11668 13.3417 7.11668H14.9917C15.0667 7.11668 15.1 7.15835 15.1 7.23335V13.65C15.1 13.7417 15.0667 13.7833 14.9917 13.7833H13.3583C13.275 13.7833 13.2333 13.7333 13.2333 13.65V13.65Z" fill="#FF9A00"/>
</g>
<defs>
<clipPath id="clip0_1_16">
<rect width="20" height="19.5" fill="white"/>
</clipPath>
</defs>
</svg>
