<svg width="20" height="20" viewBox="0 0 20 20" fill="none" xmlns="http://www.w3.org/2000/svg">
<rect width="20" height="20" fill="white"/>
<g clip-path="url(#clip0_1_20)">
<path fill-rule="evenodd" clip-rule="evenodd" d="M19.5361 14.707L19.4466 14.9398C17.9215 17.9102 15.2181 19.7331 11.3623 19.8128C9.56054 19.8503 7.84179 19.388 6.72037 18.8851C4.29849 17.7979 2.26236 15.7796 1.15071 13.6247C-0.444346 10.5355 -0.732432 6.23698 2.58463 3.02734C2.63508 3.02734 2.18261 3.72396 2.23306 3.72396L2.14192 4.02181C-0.249033 11.5055 7.11587 17.9183 14.2741 17.1859C15.9961 17.0068 18.1901 16.0645 19.5361 14.707Z" fill="#21609B"/>
<path fill-rule="evenodd" clip-rule="evenodd" d="M15.2034 11.6129C17.0052 11.626 18.8851 10.7829 20 9.60123C19.025 12.0752 16.2028 13.6654 12.4186 13.1592C9.24965 12.7344 6.23208 9.54589 5.9212 6.3509C5.69334 4.02506 6.50388 2.63834 7.84015 0.953766C7.37628 1.8343 7.20213 2.51301 7.15981 2.94595C6.65037 7.97851 11.1767 11.5869 15.2034 11.6129Z" fill="#21609B"/>
<path fill-rule="evenodd" clip-rule="evenodd" d="M19.8193 5.36621C19.5394 6.00911 17.928 7.22168 17.2152 7.37305C14.3961 7.97363 12.5911 6.63737 11.6455 5.11556C11.5055 4.8877 11.2451 4.26758 11.1979 4.1097C10.8317 2.86296 10.9993 0.976563 12.0931 0C11.7643 0.927734 11.7155 2.00684 11.8896 2.70833C11.9954 3.13151 12.3144 3.87207 12.6351 4.33757C13.2178 5.18555 13.5872 5.39063 14.3376 5.84147C14.6745 6.04329 15.0374 6.20605 15.1937 6.25163C15.9033 6.45996 17.4023 7.01009 19.8193 5.36621Z" fill="#21609B"/>
</g>
<defs>
<clipPath id="clip0_1_20">
<rect width="20" height="19.8145" fill="white"/>
</clipPath>
</defs>
</svg>
